# xmcd
#
# Track frame offsets:
#	150
#	7112
#	18740
#	30320
#	43065
#	55650
#	68167
#	81700
#	93387
#	106510
#	120165
#	133330
#	145792
#	157037
#	168900
#	181455
#	194180
#	207750
#	219770
#	231495
#	243980
#	255082
#	266357
#	278587
#	292435
#	305665
#	317842
#	330852
#
# Disc length: 4585 seconds
#
# Revision: 0
# Processed by: cddbd v1.5.1PL0 Copyright (c) Steve Scherf et al.
# Submitted via: dBpowerAMP V4.0
#
DISCID=9311e71c
DTITLE=alphabetical four - complete recorded works 1938-1943 document records
DYEAR=1900
DGENRE=gospel
TTITLE0=precious lord, hold my hand
TTITLE1=when the moon goes down in the valley of time
TTITLE2=get on board, little children
TTITLE3=what a friend wwe have in jesus
TTITLE4=my mother's prayers have followed me
TTITLE5=live humble
TTITLE6=i want two wings to veil my face
TTITLE7=old ark's a-moverin
TTITLE8=he was nailed to the cross
TTITLE9=will the circle be unbroken
TTITLE10=go down jonah and serve the lord
TTITLE11=go where i send thee
TTITLE12=rock my soul
TTITLE13=do not pass me by
TTITLE14=noah, god is gonna ride on the rainy tide
TTITLE15=book of the seven seals
TTITLE16=he sees all who do and hears all we say
TTITLE17=i don't care where they bury my body
TTITLE18=have you heard about the world coming to an end
TTITLE19=shake my mother's hand for me
TTITLE20=we will understand it better bye and bye
TTITLE21=i can't feel at home in this world anymore
TTITLE22=sleep on darling mother
TTITLE23=i just can't help from crying sometimes
TTITLE24=shepherd go feed my sheep
TTITLE25=valley of time
TTITLE26=i'm gonna walk right in and make myself at home
TTITLE27=sun didn't shine
EXTD=
EXTT0=
EXTT1=
EXTT2=
EXTT3=
EXTT4=
EXTT5=
EXTT6=
EXTT7=
EXTT8=
EXTT9=
EXTT10=
EXTT11=
EXTT12=
EXTT13=
EXTT14=
EXTT15=
EXTT16=
EXTT17=
EXTT18=
EXTT19=
EXTT20=
EXTT21=
EXTT22=
EXTT23=
EXTT24=
EXTT25=
EXTT26=
EXTT27=
PLAYORDER=
